<svg xmlns="http://www.w3.org/2000/svg" width="480" height="272" viewBox="0 0 480 272" shape-rendering="geometricPrecision">
  <defs>
    <linearGradient id="sky" x1="0" y1="0" x2="0" y2="1">
      <stop offset="0%" stop-color="#07111e"/>
      <stop offset="55%" stop-color="#13253a"/>
      <stop offset="100%" stop-color="#223249"/>
    </linearGradient>
    <linearGradient id="mist" x1="0" y1="0" x2="0" y2="1">
      <stop offset="0%" stop-color="#8cc7ff" stop-opacity="0.22"/>
      <stop offset="100%" stop-color="#8cc7ff" stop-opacity="0"/>
    </linearGradient>
    <linearGradient id="floorGlow" x1="0" y1="0" x2="0" y2="1">
      <stop offset="0%" stop-color="#5eb8ff" stop-opacity="0.18"/>
      <stop offset="100%" stop-color="#5eb8ff" stop-opacity="0"/>
    </linearGradient>
  </defs>

  <rect width="480" height="272" fill="url(#sky)"/>

  <g opacity="0.75">
    <circle cx="82" cy="54" r="2" fill="#b5d7ff"/>
    <circle cx="160" cy="31" r="1.5" fill="#d5ebff"/>
    <circle cx="248" cy="46" r="2" fill="#d5ebff"/>
    <circle cx="330" cy="28" r="1.5" fill="#b5d7ff"/>
    <circle cx="402" cy="59" r="2" fill="#d5ebff"/>
    <circle cx="440" cy="37" r="1" fill="#d5ebff"/>
  </g>

  <circle cx="384" cy="58" r="24" fill="#bfe3ff" fill-opacity="0.08"/>
  <rect x="0" y="126" width="480" height="78" fill="url(#mist)"/>

  <g fill="#112033">
    <rect x="18" y="102" width="30" height="118"/>
    <rect x="58" y="78" width="22" height="142"/>
    <rect x="94" y="92" width="28" height="128"/>
    <rect x="138" y="64" width="26" height="156"/>
    <rect x="180" y="88" width="30" height="132"/>
    <rect x="224" y="70" width="32" height="150"/>
    <rect x="272" y="84" width="26" height="136"/>
    <rect x="314" y="60" width="34" height="160"/>
    <rect x="364" y="92" width="24" height="128"/>
    <rect x="404" y="74" width="28" height="146"/>
    <rect x="444" y="108" width="22" height="112"/>
  </g>

  <g fill="#1d3550" fill-opacity="0.95">
    <path d="M0 220 L0 168 L28 152 L56 168 L56 220 Z"/>
    <path d="M52 220 L52 144 L88 128 L124 144 L124 220 Z"/>
    <path d="M114 220 L114 132 L154 112 L194 132 L194 220 Z"/>
    <path d="M188 220 L188 150 L224 132 L260 150 L260 220 Z"/>
    <path d="M250 220 L250 122 L294 98 L338 122 L338 220 Z"/>
    <path d="M330 220 L330 146 L366 130 L402 146 L402 220 Z"/>
    <path d="M394 220 L394 156 L424 142 L454 156 L454 220 Z"/>
    <path d="M448 220 L448 174 L480 160 L480 220 Z"/>
  </g>

  <g fill="#6ad0ff" fill-opacity="0.35">
    <rect x="68" y="162" width="8" height="32"/>
    <rect x="148" y="134" width="8" height="52"/>
    <rect x="236" y="144" width="10" height="42"/>
    <rect x="330" y="124" width="10" height="66"/>
    <rect x="412" y="154" width="8" height="30"/>
  </g>

  <g fill="#29425c" fill-opacity="0.98">
    <rect x="0" y="214" width="480" height="58"/>
    <rect x="0" y="198" width="480" height="6" fill="#35516f"/>
    <rect x="34" y="190" width="120" height="7"/>
    <rect x="182" y="184" width="102" height="7"/>
    <rect x="318" y="190" width="128" height="7"/>
    <rect x="18" y="226" width="14" height="46" fill="#182838"/>
    <rect x="108" y="220" width="12" height="52" fill="#182838"/>
    <rect x="232" y="220" width="12" height="52" fill="#182838"/>
    <rect x="354" y="220" width="12" height="52" fill="#182838"/>
    <rect x="438" y="220" width="14" height="52" fill="#182838"/>
  </g>

  <rect x="0" y="196" width="480" height="76" fill="url(#floorGlow)"/>
  <rect x="0" y="236" width="480" height="36" fill="#0c1623" fill-opacity="0.55"/>
</svg>
